<?xml version="1.0" encoding="UTF-8"?>
<svg width="18px" height="23px" viewBox="0 0 18 23" version="1.1" xmlns="http://www.w3.org/2000/svg" xmlns:xlink="http://www.w3.org/1999/xlink">
    <!-- Generator: Sketch 48 (47235) - http://www.bohemiancoding.com/sketch -->
    <title>logo</title>
    <desc>Created with Sketch.</desc>
    <defs></defs>
    <g id="Page-1" stroke="none" stroke-width="1" fill="none" fill-rule="evenodd">
        <g id="logo">
            <path d="M16.4740565,15 L5.52474228,15 C4.683517,15 4,14.3281567 4,13.4998312 C4,12.6716745 4.683517,12 5.52474228,12 L16.4740565,12 C17.316483,12 18,12.6716745 18,13.4998312 C18,14.3281567 17.316483,15 16.4740565,15" id="Fill-1" fill="#FFFFFF"></path>
            <path d="M0,13.4999139 C0,14.3280882 0.671739505,15 1.49991386,15 C2.32774364,15 3,14.3280882 3,13.4999139 C3,12.6713949 2.32774364,12 1.49991386,12 C0.671739505,12 0,12.6713949 0,13.4999139" id="Fill-2" fill="#249182"></path>
            <path d="M16.4740565,19 L5.52474228,19 C4.683517,19 4,18.328081 4,17.4996624 C4,16.6720878 4.683517,16 5.52474228,16 L16.4740565,16 C17.316483,16 18,16.6720878 18,17.4996624 C18,18.328081 17.316483,19 16.4740565,19" id="Fill-3" fill="#FFFFFF"></path>
            <path d="M0,17.5 C0,18.3282219 0.671739505,19 1.49991386,19 C2.32774364,19 3,18.3282219 3,17.5 C3,16.6717781 2.32774364,16 1.49991386,16 C0.671739505,16 0,16.6717781 0,17.5" id="Fill-4" fill="#249182"></path>
            <path d="M16.4740565,23 L5.52474228,23 C4.683517,23 4,22.3287563 4,21.5 C4,20.6715813 4.683517,20 5.52474228,20 L16.4740565,20 C17.316483,20 18,20.6715813 18,21.5 C18,22.3287563 17.316483,23 16.4740565,23" id="Fill-5" fill="#FFFFFF"></path>
            <path d="M0,21.4992247 C0,22.3286051 0.671739505,23 1.49991386,23 C2.32774364,23 3,22.3286051 3,21.4992247 C3,20.6713949 2.32774364,20 1.49991386,20 C0.671739505,20 0,20.6713949 0,21.4992247" id="Fill-6" fill="#249182"></path>
            <path d="M16.5732452,10 C15.7843337,10 15.1447948,9.38780488 15.1447948,8.63105691 C15.1447948,5.38195122 12.3884368,2.73772358 9,2.73772358 C5.61054595,2.73772358 2.85503561,5.38195122 2.85503561,8.63105691 C2.85503561,9.38780488 2.21634452,10 1.42760258,10 C0.638691082,10 0,9.38780488 0,8.63105691 C0,3.87186992 4.03679213,0 9,0 C13.9630383,0 18,3.87186992 18,8.63105691 C18,9.38780488 17.3604612,10 16.5732452,10" id="Fill-7" fill="#FFFFFF"></path>
        </g>
    </g>
</svg>